<?xml version="1.0" encoding="UTF-8" standalone="no"?>
<!DOCTYPE svg PUBLIC "-//W3C//DTD SVG 1.1//EN" "http://www.w3.org/Graphics/SVG/1.1/DTD/svg11.dtd">
<svg width="100%" height="100%" viewBox="0 0 489 489" version="1.1" xmlns="http://www.w3.org/2000/svg" xmlns:xlink="http://www.w3.org/1999/xlink" xml:space="preserve" xmlns:serif="http://www.serif.com/" style="fill-rule:evenodd;clip-rule:evenodd;stroke-linejoin:round;stroke-miterlimit:1.41421;">
    <g transform="matrix(5.55556,0,0,5.55556,0,0)">
        <g transform="matrix(1,0,0,1,-15,-15)">
            <path d="M96.67,83.9C96.96,84.16 97.25,84.43 97.54,84.7C97.18,84.35 96.81,84 96.44,83.67C89.54,77.41 81.32,73.1 72.42,70.99L72.4,70.99C68.11,69.93 63.69,69.36 59.23,69.36C54.77,69.36 50.35,69.93 46.06,70.99L46.05,70.99C29.59,74.9 20.14,85.58 18.95,86.72C17.82,88.06 16.97,89.65 16.97,91.93C16.97,95.5 19.71,100.06 25,100.06C29,100.06 30.95,97.66 31.92,96.55C39.25,89.34 48.89,85.38 59.22,85.38C69.55,85.38 79.19,89.34 86.52,96.55C87.49,97.66 89.44,100.06 93.44,100.06C98.73,100.06 101.47,95.51 101.47,91.93C101.48,87.9 98.86,86.03 96.67,83.9ZM32.07,96.39C32.15,96.3 32.22,96.22 32.29,96.16C32.27,96.18 32.18,96.27 32.07,96.39ZM86.18,96.16C86.24,96.22 86.32,96.3 86.4,96.39C86.28,96.27 86.19,96.18 86.18,96.16Z" style="fill:rgb(211,65,213);fill-rule:nonzero;"/>
            <path d="M46.05,45.3C43.73,35.91 39.07,27.14 32.28,20.12C31.46,19.35 29.57,16.24 25.02,16.24C19.73,16.24 16.99,20.79 16.99,24.37C16.99,27.23 18.31,29 19.87,30.55C20,30.68 23.31,33.85 20.93,31.59C21.29,31.94 21.66,32.29 22.03,32.62C28.19,39.71 31.55,48.65 31.55,58.15C31.55,67.65 28.19,76.59 22.03,83.68C21.66,84.02 21.29,84.36 20.93,84.71C21.22,84.44 21.51,84.17 21.8,83.91C19.61,86.04 16.99,87.92 16.99,91.93C16.99,95.5 19.73,100.06 25.02,100.06C29.57,100.06 31.47,96.95 32.28,96.18C39.07,89.16 43.73,80.38 46.05,71C47.04,66.85 47.56,62.54 47.56,58.16C47.56,53.78 47.04,49.45 46.05,45.3Z" style="fill:rgb(0,186,236);fill-rule:nonzero;"/>
            <path d="M101.48,24.36C101.48,20.79 98.74,16.23 93.45,16.23C89.45,16.23 87.5,18.63 86.53,19.74C79.2,26.95 69.56,30.91 59.23,30.91C48.9,30.91 39.26,26.95 31.93,19.74C30.96,18.63 29.01,16.23 25.01,16.23C19.72,16.23 16.98,20.78 16.98,24.36C16.98,26.98 17.83,28.66 21.79,32.38C28.13,38.33 39.21,43.67 46.05,45.3L46.06,45.3C50.35,46.36 54.77,46.93 59.23,46.93C63.69,46.93 68.11,46.36 72.4,45.3L72.41,45.3C82.2,42.98 91.09,37.97 96.43,32.62C99.22,29.82 101.48,28.04 101.48,24.36ZM32.07,19.89C32.18,20.01 32.27,20.1 32.29,20.12C32.22,20.05 32.14,19.97 32.07,19.89ZM86.4,19.89C86.32,19.98 86.25,20.06 86.18,20.12C86.19,20.1 86.28,20.01 86.4,19.89Z" style="fill:rgb(255,180,0);fill-rule:nonzero;"/>
            <path d="M96.43,83.67C90.27,76.58 86.91,67.64 86.91,58.14C86.91,40.29 98.38,30.76 98.6,30.54C100.15,28.99 101.48,27.21 101.48,24.36C101.48,20.79 98.74,16.23 93.45,16.23C88.9,16.23 87,19.34 86.19,20.11C79.4,27.13 74.74,35.91 72.42,45.29C71.43,49.44 70.91,53.75 70.91,58.13C70.91,62.51 71.43,66.82 72.42,70.97C74.74,80.36 79.4,89.13 86.19,96.15C87.01,96.92 88.9,100.03 93.45,100.03C98.74,100.03 101.48,95.48 101.48,91.9C101.48,88.65 99.2,86.3 96.43,83.67Z" style="fill:rgb(255,61,103);fill-rule:nonzero;"/>
            <path d="M46.05,45.3C37.15,43.19 28.93,38.87 22.03,32.62C19.8,30.39 16.98,28.53 16.98,24.37C16.98,20.8 19.72,16.24 25.01,16.24C29.56,16.24 31.46,19.35 32.27,20.12C39.07,27.13 43.73,35.91 46.05,45.3Z" style="fill:rgb(53,179,37);fill-rule:nonzero;"/>
            <path d="M72.41,70.98C81.15,73.06 89.32,77.26 96.15,83.34C96.44,83.6 98.27,85.41 98.61,85.74C100.16,87.29 101.48,89.06 101.48,91.92C101.48,95.49 98.74,100.05 93.45,100.05C88.9,100.05 86.99,96.94 86.18,96.17C79.38,89.15 74.73,80.37 72.41,70.98Z" style="fill:rgb(0,79,116);fill-rule:nonzero;"/>
        </g>
    </g>
</svg>
