<svg id="Layer_1" data-name="Layer 1" xmlns="http://www.w3.org/2000/svg" xmlns:xlink="http://www.w3.org/1999/xlink" viewBox="0 0 25 25"><defs><style>.cls-1,.cls-13,.cls-15{fill:#9345e5;}.cls-1,.cls-11,.cls-12,.cls-2,.cls-8,.cls-9{clip-rule:evenodd;}.cls-2,.cls-24,.cls-26{fill:#33d396;}.cls-3{fill:#3383db;}.cls-38,.cls-4,.cls-9{fill:#cff8ff;}.cls-34,.cls-5,.cls-8{fill:#00c0ed;}.cls-6{fill:#fce7ca;}.cls-7{fill:#eda11b;}.cls-10{fill:#dcedff;}.cls-11,.cls-17,.cls-19{fill:#f4e6ff;}.cls-12,.cls-21,.cls-23{fill:#c8fce8;}.cls-13,.cls-17,.cls-21,.cls-24,.cls-34,.cls-38{fill-rule:evenodd;}.cls-14{clip-path:url(#clip-path);}.cls-16{clip-path:url(#clip-path-2);}.cls-18{clip-path:url(#clip-path-3);}.cls-20{clip-path:url(#clip-path-4);}.cls-22{clip-path:url(#clip-path-5);}.cls-25{clip-path:url(#clip-path-6);}.cls-27{clip-path:url(#clip-path-7);}.cls-28{clip-path:url(#clip-path-8);}.cls-29{clip-path:url(#clip-path-9);}.cls-30{clip-path:url(#clip-path-10);}.cls-31{clip-path:url(#clip-path-11);}.cls-32{clip-path:url(#clip-path-12);}.cls-33{clip-path:url(#clip-path-13);}.cls-35{clip-path:url(#clip-path-14);}.cls-36{clip-path:url(#clip-path-15);}.cls-37{clip-path:url(#clip-path-16);}.cls-39{clip-path:url(#clip-path-17);}.cls-40{clip-path:url(#clip-path-18);}.cls-41{clip-path:url(#clip-path-19);}.cls-42{clip-path:url(#clip-path-20);}.cls-43{clip-path:url(#clip-path-21);}.cls-44{clip-path:url(#clip-path-22);}.cls-45{clip-path:url(#clip-path-23);}.cls-46{clip-path:url(#clip-path-24);}.cls-47{clip-path:url(#clip-path-25);}.cls-48{clip-path:url(#clip-path-26);}.cls-49{clip-path:url(#clip-path-27);}.cls-50{clip-path:url(#clip-path-28);}.cls-51{clip-path:url(#clip-path-29);}.cls-52{clip-path:url(#clip-path-30);}.cls-53{clip-path:url(#clip-path-31);}.cls-54{clip-path:url(#clip-path-32);}.cls-55{clip-path:url(#clip-path-33);}.cls-56{clip-path:url(#clip-path-34);}.cls-57{clip-path:url(#clip-path-35);}.cls-58{clip-path:url(#clip-path-36);}.cls-59{clip-path:url(#clip-path-37);}.cls-60{clip-path:url(#clip-path-38);}.cls-61{clip-path:url(#clip-path-39);}.cls-62{clip-path:url(#clip-path-40);}.cls-63{clip-path:url(#clip-path-41);}.cls-64{clip-path:url(#clip-path-42);}.cls-65{clip-path:url(#clip-path-43);}.cls-66{clip-path:url(#clip-path-44);}.cls-67{clip-path:url(#clip-path-45);}.cls-68{clip-path:url(#clip-path-46);}.cls-69{clip-path:url(#clip-path-47);}.cls-70{clip-path:url(#clip-path-48);}.cls-71{clip-path:url(#clip-path-49);}.cls-72{clip-path:url(#clip-path-50);}.cls-73{clip-path:url(#clip-path-51);}.cls-74{clip-path:url(#clip-path-52);}.cls-75{clip-path:url(#clip-path-53);}.cls-76{clip-path:url(#clip-path-54);}.cls-77{clip-path:url(#clip-path-55);}.cls-78{clip-path:url(#clip-path-56);}.cls-79{opacity:0;}.cls-80{fill:#fff;}.cls-81{fill:#bef4c5;}.cls-82{fill:#03a94a;}</style><clipPath id="clip-path"><path class="cls-1" d="M-1308.8,1094.25a15.14,15.14,0,0,1-6.35-1.46,173.25,173.25,0,0,1-46.25-33.34,173.42,173.42,0,0,1-33.34-46.24,14.56,14.56,0,0,1,2.87-16.79l12.18-12.09,24.89,25-12,12.14.29.58a88.78,88.78,0,0,0,17.77,24.26,87.09,87.09,0,0,0,24,17.66h.58l12.33-11.93,25.62,25.67-12.13,12.13a14.58,14.58,0,0,1-10.44,4.37"/></clipPath><clipPath id="clip-path-2"><path class="cls-1" d="M-1285.17,1027.28l-9.7-1.6a33.51,33.51,0,0,0-9.71-27.52,32.26,32.26,0,0,0-26.73-9l-1.9-9.71A42.29,42.29,0,0,1-1297.73,991a43.69,43.69,0,0,1,12.56,36.25"/></clipPath><clipPath id="clip-path-3"><path class="cls-11" d="M-1263.57,1030.58l-9.71-1.6a56.36,56.36,0,0,0-15.86-45.37,53.66,53.66,0,0,0-44.16-15.05l-1.9-9.7a63.36,63.36,0,0,1,53.09,17.37,65.15,65.15,0,0,1,18.73,54.3"/></clipPath><clipPath id="clip-path-4"><path class="cls-11" d="M-1305.64,1024.76l-9.71-1.6a14,14,0,0,0-3.93-11.17,13,13,0,0,0-10.77-3.68l-1.89-9.71a23.08,23.08,0,0,1,19.41,6.26,24.28,24.28,0,0,1,6.84,19.85"/></clipPath><clipPath id="clip-path-5"><path class="cls-12" d="M-1026.06,1060.7h-60.36a8.37,8.37,0,0,1-5.92-2.45,8.37,8.37,0,0,1-2.45-5.92v-48a8.37,8.37,0,0,1,8.37-8.37h60.36a8.37,8.37,0,0,1,8.37,8.37v48a8.38,8.38,0,0,1-2.46,5.92,8.35,8.35,0,0,1-5.91,2.45"/></clipPath><clipPath id="clip-path-6"><path class="cls-2" d="M-1013.61,979.23h-66a7.5,7.5,0,0,0-6.65-4.09,7.44,7.44,0,0,0-6.58,7.39,7.43,7.43,0,0,0,6.58,7.38,7.54,7.54,0,0,0,6.65-4.13h66a8.56,8.56,0,0,1,8.52,8.51v67.94a8.56,8.56,0,0,1-8.52,8.51h-85.26a8.48,8.48,0,0,1-6-2.49,8.51,8.51,0,0,1-2.5-6v-47.31a7.37,7.37,0,0,0,3.89-8.3,7.38,7.38,0,0,0-7.19-5.69,7.37,7.37,0,0,0-7.18,5.69,7.38,7.38,0,0,0,3.88,8.3v47.36a15.12,15.12,0,0,0,15.12,15.06h85.26a15.11,15.11,0,0,0,15.11-15.06V994.34a15.16,15.16,0,0,0-15.11-15.11"/></clipPath><clipPath id="clip-path-7"><path class="cls-2" d="M-1071.21,1024.91l-.73-.24c-1.83-.64-3.6-1.19-3.6-2.76s1.58-2.31,3.15-2.31a8.61,8.61,0,0,1,5.22,2.26h.25a.25.25,0,0,0,.24,0l3.1-3.84a.36.36,0,0,0,0-.25,14.23,14.23,0,0,0-9-3.2,8,8,0,0,0-6.19,1.88,8,8,0,0,0-2.77,5.85c0,5.32,4.14,6.9,7.54,8.18,2.61.93,4.92,1.72,4.92,3.79s-2.07,3-3.84,3a8.53,8.53,0,0,1-6.35-3.2.32.32,0,0,0-.22-.1.29.29,0,0,0-.22.1l-3.6,3.49a.53.53,0,0,0,0,.25,13.8,13.8,0,0,0,10.34,4.53,9.16,9.16,0,0,0,7-2,9.16,9.16,0,0,0,3.3-6.49c0-6-4.92-7.73-8.42-8.86"/></clipPath><clipPath id="clip-path-8"><path class="cls-2" d="M-1053.48,1014.77h-5.27a.35.35,0,0,0-.35.35v26.38a.39.39,0,0,0,.1.25.39.39,0,0,0,.25.1h5.36a.35.35,0,0,0,.35-.35v-26.38a.35.35,0,0,0-.35-.35"/></clipPath><clipPath id="clip-path-9"><path class="cls-2" d="M-1039.06,1014.77h-8.52a.35.35,0,0,0-.34.35v26.38a.35.35,0,0,0,.34.35h5.37a.35.35,0,0,0,.34-.35v-9.84h2.81c4.68,0,10.19-2.22,10.19-8.57a9,9,0,0,0-3.31-6.35A9,9,0,0,0-1039.06,1014.77Zm-2.81,5.22h2.81c2.41,0,3.94,1.33,3.94,3.4s-1.58,3.29-4.68,3.29h-1.82Z"/></clipPath><clipPath id="clip-path-10"><rect class="cls-6" x="-827.46" y="998.26" width="114.76" height="16.6"/></clipPath><clipPath id="clip-path-11"><rect class="cls-6" x="-827.46" y="1037.57" width="114.76" height="16.65"/></clipPath><clipPath id="clip-path-12"><rect class="cls-7" x="-758.7" y="968.87" width="16.6" height="114.75"/></clipPath><clipPath id="clip-path-13"><rect class="cls-7" x="-798.07" y="968.87" width="16.6" height="114.75"/></clipPath><clipPath id="clip-path-14"><path class="cls-8" d="M438.83,996.35h94.83a3.24,3.24,0,0,1,2.31.94,3.38,3.38,0,0,1,1,2.34v59.49a3.31,3.31,0,0,1-1,2.35,3.15,3.15,0,0,1-2.33.92H506.91L483.45,1079a3.21,3.21,0,0,1-3.24.09,3.35,3.35,0,0,1-1.75-2.8v-13.85H438.83a3.2,3.2,0,0,1-2.31-.94,3.37,3.37,0,0,1-1-2.33V999.63a3.34,3.34,0,0,1,3.3-3.28"/></clipPath><clipPath id="clip-path-15"><rect class="cls-4" x="454.7" y="1015.42" width="65.04" height="8.94"/></clipPath><clipPath id="clip-path-16"><rect class="cls-4" x="454.7" y="1033.26" width="65.04" height="8.89"/></clipPath><clipPath id="clip-path-17"><path class="cls-9" d="M454.05,988.53V977.08a4.09,4.09,0,0,1,4-4h97.48a4,4,0,0,1,4,4v66.45a4,4,0,0,1-4,4h-9.63l-.55-59.24Z"/></clipPath><clipPath id="clip-path-18"><polygon class="cls-10" points="-102.52 977.17 -124.28 958.31 -208.22 958.31 -208.22 1083.97 -102.52 1083.97 -102.52 977.17"/></clipPath><clipPath id="clip-path-19"><polygon class="cls-3" points="-124.23 958.31 -124.23 977.18 -102.52 977.18 -124.23 958.31"/></clipPath><clipPath id="clip-path-20"><path class="cls-3" d="M-85,1079.21-103.16,1061a49.34,49.34,0,0,0,8.61-34.79,49.68,49.68,0,0,0-44-42.9A49.6,49.6,0,0,0-193,1037.73a49.67,49.67,0,0,0,42.83,44,49.26,49.26,0,0,0,34.74-8.52l18.32,18.45a8.62,8.62,0,0,0,13.85-2.31A8.8,8.8,0,0,0-85,1079.21m-94.65-41.91A36.35,36.35,0,0,1-139,996.58a36.42,36.42,0,0,1,31.28,31.25,36.35,36.35,0,0,1-40.73,40.74,36.43,36.43,0,0,1-31.27-31.27"/></clipPath><clipPath id="clip-path-21"><polygon class="cls-3" points="-160.84 1029.07 -160.84 1020.89 -155.67 1020.89 -155.67 1029.07 -147.45 1029.07 -147.45 1034.23 -155.67 1034.23 -155.67 1042.45 -160.84 1042.45 -160.84 1034.23 -169.01 1034.23 -169.01 1029.07 -160.84 1029.07"/></clipPath><clipPath id="clip-path-22"><path class="cls-3" d="M-140.39,1045v-21.57c-1.29.6-2.88,1.29-4.05,1.77v-5.51c1.86-1,4.09-2.11,6.16-3.27h4V1045Z"/></clipPath><clipPath id="clip-path-23"><rect class="cls-4" x="342.62" y="364.16" width="79.94" height="141.41" rx="9.1"/></clipPath><clipPath id="clip-path-24"><path class="cls-5" d="M372.07,493.09h21v5.05h-21Zm21-120.61h5.11v5h-5.11Zm-21,0H388.9v5H372.07Z"/></clipPath><clipPath id="clip-path-25"><polygon class="cls-5" points="368.37 401.59 464.3 401.59 464.3 461.49 403.82 461.49 383.57 476.53 383.57 461.49 368.37 461.49 368.37 401.59"/></clipPath><clipPath id="clip-path-26"><polygon class="cls-4" points="406.17 414.72 406.17 444.62 426.5 429.55 406.17 414.72"/></clipPath><clipPath id="clip-path-27"><rect class="cls-4" x="112.05" y="955.54" width="79.94" height="141.41" rx="9.1"/></clipPath><clipPath id="clip-path-28"><path class="cls-5" d="M141.5,1084.47h21v5h-21Zm21-120.62h5.11v5h-5.11Zm-21,0h16.83v5H141.5Z"/></clipPath><clipPath id="clip-path-29"><polygon class="cls-5" points="137.8 992.97 233.73 992.97 233.73 1052.86 173.25 1052.86 153 1067.9 153 1052.86 137.8 1052.86 137.8 992.97"/></clipPath><clipPath id="clip-path-30"><polygon class="cls-4" points="175.6 1006.09 175.6 1035.99 195.93 1020.93 175.6 1006.09"/></clipPath><clipPath id="clip-path-31"><path class="cls-1" d="M-1308.41,768.12a15.21,15.21,0,0,1-6.36-1.45A173.47,173.47,0,0,1-1361,733.33a173.54,173.54,0,0,1-33.33-46.24,14.56,14.56,0,0,1,2.86-16.79l12.18-12.09,24.89,25-12,12.13.29.59a88.54,88.54,0,0,0,17.76,24.26,87.24,87.24,0,0,0,24,17.66h.58l12.33-11.93,25.62,25.67L-1298,763.76a14.57,14.57,0,0,1-10.43,4.36"/></clipPath><clipPath id="clip-path-32"><path class="cls-1" d="M-1284.78,701.16l-9.71-1.6a33.49,33.49,0,0,0-9.7-27.52,32.28,32.28,0,0,0-26.74-9l-1.89-9.71a42.27,42.27,0,0,1,35.47,11.55,43.65,43.65,0,0,1,12.57,36.25"/></clipPath><clipPath id="clip-path-33"><path class="cls-11" d="M-1263.19,704.46l-9.7-1.6a56.43,56.43,0,0,0-15.87-45.38,53.61,53.61,0,0,0-44.16-15l-1.89-9.7a63.38,63.38,0,0,1,53.09,17.37,65.18,65.18,0,0,1,18.73,54.3"/></clipPath><clipPath id="clip-path-34"><path class="cls-11" d="M-1305.26,698.64-1315,697a14,14,0,0,0-3.93-11.16,13.09,13.09,0,0,0-10.78-3.69l-1.89-9.7a23,23,0,0,1,19.41,6.26,24.28,24.28,0,0,1,6.84,19.85"/></clipPath><clipPath id="clip-path-35"><path class="cls-12" d="M-1024.81,734.17h-60.36a8.35,8.35,0,0,1-5.91-2.45,8.38,8.38,0,0,1-2.46-5.92v-48a8.37,8.37,0,0,1,8.37-8.37h60.36a8.37,8.37,0,0,1,8.37,8.37v48a8.41,8.41,0,0,1-2.45,5.92,8.37,8.37,0,0,1-5.92,2.45"/></clipPath><clipPath id="clip-path-36"><path class="cls-2" d="M-1012.36,652.7h-66a7.5,7.5,0,0,0-6.65-4.09,7.44,7.44,0,0,0-6.58,7.39,7.43,7.43,0,0,0,6.58,7.38,7.54,7.54,0,0,0,6.65-4.13h66a8.56,8.56,0,0,1,8.52,8.51V735.7a8.56,8.56,0,0,1-8.52,8.51h-85.26a8.48,8.48,0,0,1-6-2.49,8.51,8.51,0,0,1-2.5-6V688.39a7.37,7.37,0,0,0,3.89-8.3,7.37,7.37,0,0,0-7.19-5.69,7.37,7.37,0,0,0-7.18,5.69,7.37,7.37,0,0,0,3.89,8.3v47.36a15.11,15.11,0,0,0,15.11,15.06h85.26a15.12,15.12,0,0,0,15.12-15.06V667.81a15.17,15.17,0,0,0-15.12-15.11"/></clipPath><clipPath id="clip-path-37"><path class="cls-2" d="M-1069.95,698.38l-.74-.24c-1.82-.64-3.6-1.18-3.6-2.76s1.58-2.31,3.15-2.31a8.61,8.61,0,0,1,5.22,2.26h.25a.25.25,0,0,0,.24,0l3.11-3.84a.36.36,0,0,0,0-.25,14.27,14.27,0,0,0-9-3.2,8,8,0,0,0-6.2,1.88,8,8,0,0,0-2.76,5.85c0,5.32,4.13,6.9,7.53,8.18,2.61.93,4.92,1.72,4.92,3.79s-2.07,3-3.84,3a8.53,8.53,0,0,1-6.35-3.2.32.32,0,0,0-.22-.1.29.29,0,0,0-.22.1L-1082,711a.53.53,0,0,0,0,.25,13.81,13.81,0,0,0,10.34,4.53,9.16,9.16,0,0,0,7-2,9.16,9.16,0,0,0,3.3-6.49c0-5.95-4.92-7.73-8.42-8.86"/></clipPath><clipPath id="clip-path-38"><path class="cls-2" d="M-1052.23,688.24h-5.27a.35.35,0,0,0-.34.35V715a.35.35,0,0,0,.1.25.35.35,0,0,0,.24.1h5.37a.35.35,0,0,0,.34-.35V688.59a.35.35,0,0,0-.34-.35"/></clipPath><clipPath id="clip-path-39"><path class="cls-2" d="M-1037.81,688.24h-8.52a.35.35,0,0,0-.34.35V715a.35.35,0,0,0,.34.35h5.37a.35.35,0,0,0,.35-.35v-9.84h2.8c4.68,0,10.19-2.22,10.19-8.57a9.06,9.06,0,0,0-3.3-6.35A9.08,9.08,0,0,0-1037.81,688.24Zm-2.8,5.22h2.8c2.41,0,3.94,1.33,3.94,3.4s-1.58,3.29-4.68,3.29h-1.82Z"/></clipPath><clipPath id="clip-path-40"><rect class="cls-6" x="-823.47" y="672.84" width="114.76" height="16.6"/></clipPath><clipPath id="clip-path-41"><rect class="cls-6" x="-823.47" y="712.15" width="114.76" height="16.65"/></clipPath><clipPath id="clip-path-42"><rect class="cls-7" x="-754.7" y="643.45" width="16.6" height="114.75"/></clipPath><clipPath id="clip-path-43"><rect class="cls-7" x="-794.08" y="643.45" width="16.6" height="114.75"/></clipPath><clipPath id="clip-path-44"><path class="cls-8" d="M-500.51,674.33h94.83a3.19,3.19,0,0,1,2.31.93,3.41,3.41,0,0,1,1,2.34v59.49a3.3,3.3,0,0,1-1,2.35,3.13,3.13,0,0,1-2.33.92h-26.75l-23.46,16.57a3.24,3.24,0,0,1-3.24.09,3.37,3.37,0,0,1-1.75-2.8V740.36h-39.63a3.19,3.19,0,0,1-2.31-.93,3.41,3.41,0,0,1-1-2.34V677.6a3.34,3.34,0,0,1,3.3-3.27"/></clipPath><clipPath id="clip-path-45"><rect class="cls-4" x="-484.64" y="693.39" width="65.04" height="8.94"/></clipPath><clipPath id="clip-path-46"><rect class="cls-4" x="-484.64" y="711.23" width="65.04" height="8.89"/></clipPath><clipPath id="clip-path-47"><path class="cls-9" d="M-485.29,666.51V655.06a4.1,4.1,0,0,1,4.05-4h97.48a4,4,0,0,1,4,4V721.5a4,4,0,0,1-4,4h-9.64l-.55-59.24Z"/></clipPath><clipPath id="clip-path-48"><polygon class="cls-10" points="-94.19 656.35 -115.94 637.49 -199.88 637.49 -199.88 763.14 -94.19 763.14 -94.19 656.35"/></clipPath><clipPath id="clip-path-49"><polygon class="cls-3" points="-115.89 637.49 -115.89 656.36 -94.19 656.36 -115.89 637.49"/></clipPath><clipPath id="clip-path-50"><path class="cls-3" d="M-76.71,758.39l-18.12-18.23a49.24,49.24,0,0,0,8.61-34.79,49.69,49.69,0,0,0-44-42.91,49.62,49.62,0,0,0-54.42,54.45,49.68,49.68,0,0,0,42.84,44,49.27,49.27,0,0,0,34.74-8.52l18.32,18.44a8.62,8.62,0,0,0,13.85-2.3,8.8,8.8,0,0,0-1.81-10.12m-94.65-41.91a36.34,36.34,0,0,1,40.72-40.72A36.41,36.41,0,0,1-99.37,707a36.35,36.35,0,0,1-40.73,40.74,36.42,36.42,0,0,1-31.26-31.27"/></clipPath><clipPath id="clip-path-51"><polygon class="cls-3" points="-152.5 708.25 -152.5 700.07 -147.34 700.07 -147.34 708.25 -139.12 708.25 -139.12 713.41 -147.34 713.41 -147.34 721.63 -152.5 721.63 -152.5 713.41 -160.68 713.41 -160.68 708.25 -152.5 708.25"/></clipPath><clipPath id="clip-path-52"><path class="cls-3" d="M-132,724.21V702.65c-1.3.6-2.89,1.29-4,1.77v-5.51c1.85-.95,4.09-2.12,6.15-3.27h4v28.57Z"/></clipPath><clipPath id="clip-path-53"><rect class="cls-4" x="119.49" y="633.51" width="79.94" height="141.41" rx="9.1"/></clipPath><clipPath id="clip-path-54"><path class="cls-5" d="M149,762.44h21v5H149Zm21-120.61h5.11v5H170Zm-21,0h16.83v5H149Z"/></clipPath><clipPath id="clip-path-55"><polygon class="cls-5" points="145.24 670.94 241.17 670.94 241.17 730.84 180.69 730.84 160.44 745.88 160.44 730.84 145.24 730.84 145.24 670.94"/></clipPath><clipPath id="clip-path-56"><polygon class="cls-4" points="183.04 684.07 183.04 713.97 203.37 698.9 183.04 684.07"/></clipPath></defs><path class="cls-13" d="M-1308.8,1094.25a15.14,15.14,0,0,1-6.35-1.46,173.25,173.25,0,0,1-46.25-33.34,173.42,173.42,0,0,1-33.34-46.24,14.56,14.56,0,0,1,2.87-16.79l12.18-12.09,24.89,25-12,12.14.29.58a88.78,88.78,0,0,0,17.77,24.26,87.09,87.09,0,0,0,24,17.66h.58l12.33-11.93,25.62,25.67-12.13,12.13a14.58,14.58,0,0,1-10.44,4.37"/><g class="cls-14"><rect class="cls-15" x="-3856.15" y="-12169.03" width="6140.31" height="18177.88"/></g><path class="cls-13" d="M-1285.17,1027.28l-9.7-1.6a33.51,33.51,0,0,0-9.71-27.52,32.26,32.26,0,0,0-26.73-9l-1.9-9.71A42.29,42.29,0,0,1-1297.73,991a43.69,43.69,0,0,1,12.56,36.25"/><g class="cls-16"><rect class="cls-15" x="-3856.15" y="-12169.03" width="6140.31" height="18177.88"/></g><path class="cls-17" d="M-1263.57,1030.58l-9.71-1.6a56.36,56.36,0,0,0-15.86-45.37,53.66,53.66,0,0,0-44.16-15.05l-1.9-9.7a63.36,63.36,0,0,1,53.09,17.37,65.15,65.15,0,0,1,18.73,54.3"/><g class="cls-18"><rect class="cls-19" x="-3856.15" y="-12169.03" width="6140.31" height="18177.88"/></g><path class="cls-17" d="M-1305.64,1024.76l-9.71-1.6a14,14,0,0,0-3.93-11.17,13,13,0,0,0-10.77-3.68l-1.89-9.71a23.08,23.08,0,0,1,19.41,6.26,24.28,24.28,0,0,1,6.84,19.85"/><g class="cls-20"><rect class="cls-19" x="-3856.15" y="-12169.03" width="6140.31" height="18177.88"/></g><path class="cls-21" d="M-1026.06,1060.7h-60.36a8.37,8.37,0,0,1-5.92-2.45,8.37,8.37,0,0,1-2.45-5.92v-48a8.37,8.37,0,0,1,8.37-8.37h60.36a8.37,8.37,0,0,1,8.37,8.37v48a8.38,8.38,0,0,1-2.46,5.92,8.35,8.35,0,0,1-5.91,2.45"/><g class="cls-22"><rect class="cls-23" x="-3665.2" y="-13462.39" width="6334.77" height="18753.55"/></g><path class="cls-24" d="M-1013.61,979.23h-66a7.5,7.5,0,0,0-6.65-4.09,7.44,7.44,0,0,0-6.58,7.39,7.43,7.43,0,0,0,6.58,7.38,7.54,7.54,0,0,0,6.65-4.13h66a8.56,8.56,0,0,1,8.52,8.51v67.94a8.56,8.56,0,0,1-8.52,8.51h-85.26a8.48,8.48,0,0,1-6-2.49,8.51,8.51,0,0,1-2.5-6v-47.31a7.37,7.37,0,0,0,3.89-8.3,7.38,7.38,0,0,0-7.19-5.69,7.37,7.37,0,0,0-7.18,5.69,7.38,7.38,0,0,0,3.88,8.3v47.36a15.12,15.12,0,0,0,15.12,15.06h85.26a15.11,15.11,0,0,0,15.11-15.06V994.34a15.16,15.16,0,0,0-15.11-15.11"/><g class="cls-25"><rect class="cls-26" x="-3665.2" y="-13462.39" width="6334.77" height="18753.55"/></g><path class="cls-24" d="M-1071.21,1024.91l-.73-.24c-1.83-.64-3.6-1.19-3.6-2.76s1.58-2.31,3.15-2.31a8.61,8.61,0,0,1,5.22,2.26h.25a.25.25,0,0,0,.24,0l3.1-3.84a.36.36,0,0,0,0-.25,14.23,14.23,0,0,0-9-3.2,8,8,0,0,0-6.19,1.88,8,8,0,0,0-2.77,5.85c0,5.32,4.14,6.9,7.54,8.18,2.61.93,4.92,1.72,4.92,3.79s-2.07,3-3.84,3a8.53,8.53,0,0,1-6.35-3.2.32.32,0,0,0-.22-.1.29.29,0,0,0-.22.1l-3.6,3.49a.53.53,0,0,0,0,.25,13.8,13.8,0,0,0,10.34,4.53,9.16,9.16,0,0,0,7-2,9.16,9.16,0,0,0,3.3-6.49c0-6-4.92-7.73-8.42-8.86"/><g class="cls-27"><rect class="cls-26" x="-3665.2" y="-13462.39" width="6334.77" height="18753.55"/></g><path class="cls-24" d="M-1053.48,1014.77h-5.27a.35.35,0,0,0-.35.35v26.38a.39.39,0,0,0,.1.25.39.39,0,0,0,.25.1h5.36a.35.35,0,0,0,.35-.35v-26.38a.35.35,0,0,0-.35-.35"/><g class="cls-28"><rect class="cls-26" x="-3665.2" y="-13462.39" width="6334.77" height="18753.55"/></g><path class="cls-24" d="M-1039.06,1014.77h-8.52a.35.35,0,0,0-.34.35v26.38a.35.35,0,0,0,.34.35h5.37a.35.35,0,0,0,.34-.35v-9.84h2.81c4.68,0,10.19-2.22,10.19-8.57a9,9,0,0,0-3.31-6.35A9,9,0,0,0-1039.06,1014.77Zm-2.81,5.22h2.81c2.41,0,3.94,1.33,3.94,3.4s-1.58,3.29-4.68,3.29h-1.82Z"/><g class="cls-29"><rect class="cls-26" x="-3665.2" y="-13462.39" width="6334.77" height="18753.55"/></g><rect class="cls-6" x="-827.46" y="998.26" width="114.76" height="16.6"/><g class="cls-30"><rect class="cls-6" x="-5116.41" y="-16201.4" width="7096" height="22086.31"/></g><rect class="cls-6" x="-827.46" y="1037.57" width="114.76" height="16.65"/><g class="cls-31"><rect class="cls-6" x="-5116.41" y="-16201.4" width="7096" height="22086.31"/></g><rect class="cls-7" x="-758.7" y="968.87" width="16.6" height="114.75"/><g class="cls-32"><rect class="cls-7" x="-5116.41" y="-16201.4" width="7096" height="22086.31"/></g><rect class="cls-7" x="-798.07" y="968.87" width="16.6" height="114.75"/><g class="cls-33"><rect class="cls-7" x="-5116.41" y="-16201.4" width="7096" height="22086.31"/></g><path class="cls-34" d="M438.83,996.35h94.83a3.24,3.24,0,0,1,2.31.94,3.38,3.38,0,0,1,1,2.34v59.49a3.31,3.31,0,0,1-1,2.35,3.15,3.15,0,0,1-2.33.92H506.91L483.45,1079a3.21,3.21,0,0,1-3.24.09,3.35,3.35,0,0,1-1.75-2.8v-13.85H438.83a3.2,3.2,0,0,1-2.31-.94,3.37,3.37,0,0,1-1-2.33V999.63a3.34,3.34,0,0,1,3.3-3.28"/><rect class="cls-4" x="454.7" y="1015.42" width="65.04" height="8.94"/><g class="cls-36"><rect class="cls-4" x="-481.38" y="-12780.46" width="6422.65" height="19013.72"/></g><rect class="cls-4" x="454.7" y="1033.26" width="65.04" height="8.89"/><g class="cls-37"><rect class="cls-4" x="-481.38" y="-12780.46" width="6422.65" height="19013.72"/></g><path class="cls-38" d="M454.05,988.53V977.08a4.09,4.09,0,0,1,4-4h97.48a4,4,0,0,1,4,4v66.45a4,4,0,0,1-4,4h-9.63l-.55-59.24Z"/><g class="cls-39"><rect class="cls-4" x="-481.38" y="-12780.46" width="6422.65" height="19013.72"/></g><polygon class="cls-10" points="-102.52 977.17 -124.28 958.31 -208.22 958.31 -208.22 1083.97 -102.52 1083.97 -102.52 977.17"/><g class="cls-40"><rect class="cls-10" x="-2218.08" y="-14644.93" width="6454.02" height="20088.15"/></g><polygon class="cls-3" points="-124.23 958.31 -124.23 977.18 -102.52 977.18 -124.23 958.31"/><g class="cls-41"><rect class="cls-3" x="-2218.08" y="-14644.93" width="6454.02" height="20088.15"/></g><path class="cls-3" d="M-85,1079.21-103.16,1061a49.34,49.34,0,0,0,8.61-34.79,49.68,49.68,0,0,0-44-42.9A49.6,49.6,0,0,0-193,1037.73a49.67,49.67,0,0,0,42.83,44,49.26,49.26,0,0,0,34.74-8.52l18.32,18.45a8.62,8.62,0,0,0,13.85-2.31A8.8,8.8,0,0,0-85,1079.21m-94.65-41.91A36.35,36.35,0,0,1-139,996.58a36.42,36.42,0,0,1,31.28,31.25,36.35,36.35,0,0,1-40.73,40.74,36.43,36.43,0,0,1-31.27-31.27"/><g class="cls-42"><rect class="cls-3" x="-2218.08" y="-14644.93" width="6454.02" height="20088.15"/></g><polygon class="cls-3" points="-160.84 1029.07 -160.84 1020.89 -155.67 1020.89 -155.67 1029.07 -147.45 1029.07 -147.45 1034.23 -155.67 1034.23 -155.67 1042.45 -160.84 1042.45 -160.84 1034.23 -169.01 1034.23 -169.01 1029.07 -160.84 1029.07"/><g class="cls-43"><rect class="cls-3" x="-2218.08" y="-14644.93" width="6454.02" height="20088.15"/></g><path class="cls-3" d="M-140.39,1045v-21.57c-1.29.6-2.88,1.29-4.05,1.77v-5.51c1.86-1,4.09-2.11,6.16-3.27h4V1045Z"/><g class="cls-44"><rect class="cls-3" x="-2218.08" y="-14644.93" width="6454.02" height="20088.15"/></g><rect class="cls-4" x="342.62" y="364.16" width="79.94" height="141.41" rx="9.1"/><g class="cls-45"><rect class="cls-4" x="-608.02" y="-14547.79" width="6549.35" height="19388.8"/></g><path class="cls-5" d="M372.07,493.09h21v5.05h-21Zm21-120.61h5.11v5h-5.11Zm-21,0H388.9v5H372.07Z"/><g class="cls-46"><rect class="cls-5" x="-608.02" y="-14547.79" width="6549.35" height="19388.8"/></g><polygon class="cls-5" points="368.37 401.59 464.3 401.59 464.3 461.49 403.82 461.49 383.57 476.53 383.57 461.49 368.37 461.49 368.37 401.59"/><g class="cls-47"><rect class="cls-5" x="-608.02" y="-14547.79" width="6549.35" height="19388.8"/></g><polygon class="cls-4" points="406.17 414.72 406.17 444.62 426.5 429.55 406.17 414.72"/><g class="cls-48"><rect class="cls-4" x="-610.61" y="-14549.64" width="6549.35" height="19388.8"/></g><rect class="cls-4" x="112.05" y="955.54" width="79.94" height="141.41" rx="9.1"/><g class="cls-49"><rect class="cls-4" x="-838.59" y="-13956.41" width="6549.35" height="19388.8"/></g><path class="cls-5" d="M141.5,1084.47h21v5h-21Zm21-120.62h5.11v5h-5.11Zm-21,0h16.83v5H141.5Z"/><g class="cls-50"><rect class="cls-5" x="-838.59" y="-13956.41" width="6549.35" height="19388.8"/></g><polygon class="cls-5" points="137.8 992.97 233.73 992.97 233.73 1052.86 173.25 1052.86 153 1067.9 153 1052.86 137.8 1052.86 137.8 992.97"/><g class="cls-51"><rect class="cls-5" x="-838.59" y="-13956.41" width="6549.35" height="19388.8"/></g><polygon class="cls-4" points="175.6 1006.09 175.6 1035.99 195.93 1020.93 175.6 1006.09"/><g class="cls-52"><rect class="cls-4" x="-841.18" y="-13958.26" width="6549.35" height="19388.8"/></g><path class="cls-13" d="M-1308.41,768.12a15.21,15.21,0,0,1-6.36-1.45A173.47,173.47,0,0,1-1361,733.33a173.54,173.54,0,0,1-33.33-46.24,14.56,14.56,0,0,1,2.86-16.79l12.18-12.09,24.89,25-12,12.13.29.59a88.54,88.54,0,0,0,17.76,24.26,87.24,87.24,0,0,0,24,17.66h.58l12.33-11.93,25.62,25.67L-1298,763.76a14.57,14.57,0,0,1-10.43,4.36"/><g class="cls-53"><rect class="cls-15" x="-3855.77" y="-12495.16" width="6140.31" height="18177.88"/></g><path class="cls-13" d="M-1284.78,701.16l-9.71-1.6a33.49,33.49,0,0,0-9.7-27.52,32.28,32.28,0,0,0-26.74-9l-1.89-9.71a42.27,42.27,0,0,1,35.47,11.55,43.65,43.65,0,0,1,12.57,36.25"/><g class="cls-54"><rect class="cls-15" x="-3855.77" y="-12495.16" width="6140.31" height="18177.88"/></g><path class="cls-17" d="M-1263.19,704.46l-9.7-1.6a56.43,56.43,0,0,0-15.87-45.38,53.61,53.61,0,0,0-44.16-15l-1.89-9.7a63.38,63.38,0,0,1,53.09,17.37,65.18,65.18,0,0,1,18.73,54.3"/><g class="cls-55"><rect class="cls-19" x="-3855.77" y="-12495.16" width="6140.31" height="18177.88"/></g><path class="cls-17" d="M-1305.26,698.64-1315,697a14,14,0,0,0-3.93-11.16,13.09,13.09,0,0,0-10.78-3.69l-1.89-9.7a23,23,0,0,1,19.41,6.26,24.28,24.28,0,0,1,6.84,19.85"/><g class="cls-56"><rect class="cls-19" x="-3855.77" y="-12495.16" width="6140.31" height="18177.88"/></g><path class="cls-21" d="M-1024.81,734.17h-60.36a8.35,8.35,0,0,1-5.91-2.45,8.38,8.38,0,0,1-2.46-5.92v-48a8.37,8.37,0,0,1,8.37-8.37h60.36a8.37,8.37,0,0,1,8.37,8.37v48a8.41,8.41,0,0,1-2.45,5.92,8.37,8.37,0,0,1-5.92,2.45"/><g class="cls-57"><rect class="cls-23" x="-3663.95" y="-13788.92" width="6334.77" height="18753.55"/></g><path class="cls-24" d="M-1012.36,652.7h-66a7.5,7.5,0,0,0-6.65-4.09,7.44,7.44,0,0,0-6.58,7.39,7.43,7.43,0,0,0,6.58,7.38,7.54,7.54,0,0,0,6.65-4.13h66a8.56,8.56,0,0,1,8.52,8.51V735.7a8.56,8.56,0,0,1-8.52,8.51h-85.26a8.48,8.48,0,0,1-6-2.49,8.51,8.51,0,0,1-2.5-6V688.39a7.37,7.37,0,0,0,3.89-8.3,7.37,7.37,0,0,0-7.19-5.69,7.37,7.37,0,0,0-7.18,5.69,7.37,7.37,0,0,0,3.89,8.3v47.36a15.11,15.11,0,0,0,15.11,15.06h85.26a15.12,15.12,0,0,0,15.12-15.06V667.81a15.17,15.17,0,0,0-15.12-15.11"/><g class="cls-58"><rect class="cls-26" x="-3663.95" y="-13788.92" width="6334.77" height="18753.55"/></g><path class="cls-24" d="M-1069.95,698.38l-.74-.24c-1.82-.64-3.6-1.18-3.6-2.76s1.58-2.31,3.15-2.31a8.61,8.61,0,0,1,5.22,2.26h.25a.25.25,0,0,0,.24,0l3.11-3.84a.36.36,0,0,0,0-.25,14.27,14.27,0,0,0-9-3.2,8,8,0,0,0-6.2,1.88,8,8,0,0,0-2.76,5.85c0,5.32,4.13,6.9,7.53,8.18,2.61.93,4.92,1.72,4.92,3.79s-2.07,3-3.84,3a8.53,8.53,0,0,1-6.35-3.2.32.32,0,0,0-.22-.1.29.29,0,0,0-.22.1L-1082,711a.53.53,0,0,0,0,.25,13.81,13.81,0,0,0,10.34,4.53,9.16,9.16,0,0,0,7-2,9.16,9.16,0,0,0,3.3-6.49c0-5.95-4.92-7.73-8.42-8.86"/><g class="cls-59"><rect class="cls-26" x="-3663.95" y="-13788.92" width="6334.77" height="18753.55"/></g><path class="cls-24" d="M-1052.23,688.24h-5.27a.35.35,0,0,0-.34.35V715a.35.35,0,0,0,.1.25.35.35,0,0,0,.24.1h5.37a.35.35,0,0,0,.34-.35V688.59a.35.35,0,0,0-.34-.35"/><g class="cls-60"><rect class="cls-26" x="-3663.95" y="-13788.92" width="6334.77" height="18753.55"/></g><path class="cls-24" d="M-1037.81,688.24h-8.52a.35.35,0,0,0-.34.35V715a.35.35,0,0,0,.34.35h5.37a.35.35,0,0,0,.35-.35v-9.84h2.8c4.68,0,10.19-2.22,10.19-8.57a9.06,9.06,0,0,0-3.3-6.35A9.08,9.08,0,0,0-1037.81,688.24Zm-2.8,5.22h2.8c2.41,0,3.94,1.33,3.94,3.4s-1.58,3.29-4.68,3.29h-1.82Z"/><g class="cls-61"><rect class="cls-26" x="-3663.95" y="-13788.92" width="6334.77" height="18753.55"/></g><rect class="cls-6" x="-823.47" y="672.84" width="114.76" height="16.6"/><g class="cls-62"><rect class="cls-6" x="-5112.41" y="-16526.82" width="7096" height="22086.31"/></g><rect class="cls-6" x="-823.47" y="712.15" width="114.76" height="16.65"/><g class="cls-63"><rect class="cls-6" x="-5112.41" y="-16526.82" width="7096" height="22086.31"/></g><rect class="cls-7" x="-754.7" y="643.45" width="16.6" height="114.75"/><g class="cls-64"><rect class="cls-7" x="-5112.41" y="-16526.82" width="7096" height="22086.31"/></g><rect class="cls-7" x="-794.08" y="643.45" width="16.6" height="114.75"/><g class="cls-65"><rect class="cls-7" x="-5112.41" y="-16526.82" width="7096" height="22086.31"/></g><path class="cls-34" d="M-500.51,674.33h94.83a3.19,3.19,0,0,1,2.31.93,3.41,3.41,0,0,1,1,2.34v59.49a3.3,3.3,0,0,1-1,2.35,3.13,3.13,0,0,1-2.33.92h-26.75l-23.46,16.57a3.24,3.24,0,0,1-3.24.09,3.37,3.37,0,0,1-1.75-2.8V740.36h-39.63a3.19,3.19,0,0,1-2.31-.93,3.41,3.41,0,0,1-1-2.34V677.6a3.34,3.34,0,0,1,3.3-3.27"/><rect class="cls-4" x="-484.64" y="693.39" width="65.04" height="8.94"/><g class="cls-67"><rect class="cls-4" x="-1420.72" y="-13102.48" width="6422.65" height="19013.72"/></g><rect class="cls-4" x="-484.64" y="711.23" width="65.04" height="8.89"/><g class="cls-68"><rect class="cls-4" x="-1420.72" y="-13102.48" width="6422.65" height="19013.72"/></g><path class="cls-38" d="M-485.29,666.51V655.06a4.1,4.1,0,0,1,4.05-4h97.48a4,4,0,0,1,4,4V721.5a4,4,0,0,1-4,4h-9.64l-.55-59.24Z"/><g class="cls-69"><rect class="cls-4" x="-1420.72" y="-13102.48" width="6422.65" height="19013.72"/></g><polygon class="cls-10" points="-94.19 656.35 -115.94 637.49 -199.88 637.49 -199.88 763.14 -94.19 763.14 -94.19 656.35"/><g class="cls-70"><rect class="cls-10" x="-2209.74" y="-14965.75" width="6454.02" height="20088.15"/></g><polygon class="cls-3" points="-115.89 637.49 -115.89 656.36 -94.19 656.36 -115.89 637.49"/><g class="cls-71"><rect class="cls-3" x="-2209.74" y="-14965.75" width="6454.02" height="20088.15"/></g><path class="cls-3" d="M-76.71,758.39l-18.12-18.23a49.24,49.24,0,0,0,8.61-34.79,49.69,49.69,0,0,0-44-42.91,49.62,49.62,0,0,0-54.42,54.45,49.68,49.68,0,0,0,42.84,44,49.27,49.27,0,0,0,34.74-8.52l18.32,18.44a8.62,8.62,0,0,0,13.85-2.3,8.8,8.8,0,0,0-1.81-10.12m-94.65-41.91a36.34,36.34,0,0,1,40.72-40.72A36.41,36.41,0,0,1-99.37,707a36.35,36.35,0,0,1-40.73,40.74,36.42,36.42,0,0,1-31.26-31.27"/><g class="cls-72"><rect class="cls-3" x="-2209.74" y="-14965.75" width="6454.02" height="20088.15"/></g><polygon class="cls-3" points="-152.5 708.25 -152.5 700.07 -147.34 700.07 -147.34 708.25 -139.12 708.25 -139.12 713.41 -147.34 713.41 -147.34 721.63 -152.5 721.63 -152.5 713.41 -160.68 713.41 -160.68 708.25 -152.5 708.25"/><g class="cls-73"><rect class="cls-3" x="-2209.74" y="-14965.75" width="6454.02" height="20088.15"/></g><path class="cls-3" d="M-132,724.21V702.65c-1.3.6-2.89,1.29-4,1.77v-5.51c1.85-.95,4.09-2.12,6.15-3.27h4v28.57Z"/><g class="cls-74"><rect class="cls-3" x="-2209.74" y="-14965.75" width="6454.02" height="20088.15"/></g><rect class="cls-4" x="119.49" y="633.51" width="79.94" height="141.41" rx="9.1"/><g class="cls-75"><rect class="cls-4" x="-831.14" y="-14278.44" width="6549.35" height="19388.8"/></g><path class="cls-5" d="M149,762.44h21v5H149Zm21-120.61h5.11v5H170Zm-21,0h16.83v5H149Z"/><g class="cls-76"><rect class="cls-5" x="-831.14" y="-14278.44" width="6549.35" height="19388.8"/></g><polygon class="cls-5" points="145.24 670.94 241.17 670.94 241.17 730.84 180.69 730.84 160.44 745.88 160.44 730.84 145.24 730.84 145.24 670.94"/><g class="cls-77"><rect class="cls-5" x="-831.14" y="-14278.44" width="6549.35" height="19388.8"/></g><polygon class="cls-4" points="183.04 684.07 183.04 713.97 203.37 698.9 183.04 684.07"/><g class="cls-78"><rect class="cls-4" x="-833.74" y="-14280.29" width="6549.35" height="19388.8"/></g><g class="cls-79"><rect class="cls-80" width="25" height="25"/></g><path class="cls-81" d="M21.93,8.22H12.87A3.39,3.39,0,0,1,9.49,4.84a1,1,0,0,1,0-.17H1.25a.75.75,0,0,0-.75.75V19a.74.74,0,0,0,.75.74h9v3.16a.75.75,0,0,0,1.18.61l5.35-3.77h6.1a.74.74,0,0,0,.74-.74V7.77A3.4,3.4,0,0,1,21.93,8.22Z"/><rect class="cls-82" x="10.3" y="1.37" width="14.2" height="6.04" rx="3.02"/><rect class="cls-81" x="13.63" y="3.49" width="5.78" height="1.8" rx="0.28"/><path class="cls-81" d="M19.24,2.1l2.22,2.22a.1.1,0,0,1,0,.14L19.24,6.68a.09.09,0,0,1-.16-.07V2.17A.09.09,0,0,1,19.24,2.1Z"/><rect class="cls-82" x="3.9" y="10.74" width="15.52" height="1.54"/><rect class="cls-82" x="3.9" y="14.16" width="12.31" height="1.54"/></svg>